<svg width="16" height="16" viewBox="0 0 16 16" fill="none" xmlns="http://www.w3.org/2000/svg">
<path fill-rule="evenodd" clip-rule="evenodd" d="M2.48954 8.01762C2.29836 8.01762 2.14338 8.17259 2.14338 8.36377C2.14338 8.55495 2.29836 8.70992 2.48954 8.70992L8.01781 8.70992L8.01781 14.2382C8.01781 14.4294 8.17279 14.5843 8.36396 14.5843C8.55514 14.5843 8.71011 14.4294 8.71011 14.2382L8.71012 8.70992H14.2384C14.4296 8.70992 14.5845 8.55494 14.5845 8.36377C14.5845 8.17259 14.4296 8.01762 14.2384 8.01762H8.71012L8.71011 2.48934C8.71011 2.29817 8.55514 2.14319 8.36396 2.14319C8.17279 2.14319 8.01781 2.29817 8.01781 2.48934L8.01781 8.01762L2.48954 8.01762Z" fill="#DBDBDB" stroke="#DBDBDB" stroke-linecap="round"/>
</svg>
